<?xml version="1.0" encoding="utf-8"?>
<!-- Generator: Adobe Illustrator 17.0.0, SVG Export Plug-In . SVG Version: 6.00 Build 0)  -->
<!DOCTYPE svg PUBLIC "-//W3C//DTD SVG 1.1//EN" "http://www.w3.org/Graphics/SVG/1.1/DTD/svg11.dtd">
<svg version="1.1" id="Layer_1" xmlns="http://www.w3.org/2000/svg" xmlns:xlink="http://www.w3.org/1999/xlink" x="0px" y="0px"
	 width="343.001px" height="134.152px" viewBox="94.784 37.071 343.001 134.152"
	 enable-background="new 94.784 37.071 343.001 134.152" xml:space="preserve">
<g>
	<g>
		<g>
			<path fill="#227CBF" d="M348.694,97.878h-4.737c-0.889,0-1.61,0.721-1.61,1.61v50.739c0,0.889,0.721,1.61,1.61,1.61h4.737
				c0.889,0,1.61-0.721,1.61-1.61V99.488C350.304,98.599,349.584,97.878,348.694,97.878z"/>
			<path fill="#227CBF" d="M431.823,116.345c-3.967-4.063-8.811-6.124-14.396-6.124c-3.145,0-6.087,0.655-8.744,1.947
				c-1.521,0.74-2.967,1.705-4.324,2.886V98.622c0-0.889-0.721-1.61-1.61-1.61h-4.67c-0.889,0-1.61,0.721-1.61,1.61v34.66
				c0,0.066,0.004,0.133,0.012,0.198c0.426,3.435,1.711,6.958,3.821,10.471c0.052,0.086,0.112,0.167,0.178,0.243
				c2.346,2.631,4.962,4.59,7.778,5.824c2.805,1.23,5.846,1.854,9.036,1.854c5.625,0,10.501-2.047,14.489-6.083
				c3.983-4.031,6.002-8.958,6.002-14.642C437.785,125.377,435.778,120.396,431.823,116.345z M429.827,130.979
				c0,2.33-0.592,4.555-1.758,6.612c-1.166,2.053-2.748,3.677-4.703,4.827c-1.952,1.148-4.13,1.729-6.474,1.729
				c-3.632,0-6.616-1.239-9.127-3.79c-2.517-2.557-3.741-5.668-3.741-9.512c0-2.469,0.56-4.725,1.664-6.705
				c1.109-1.989,2.653-3.522,4.72-4.684c2.058-1.158,4.262-1.745,6.55-1.745c2.266,0,4.342,0.567,6.346,1.733
				c1.971,1.147,3.566,2.795,4.742,4.897C429.228,126.456,429.827,128.689,429.827,130.979z"/>
			<path fill="#227CBF" d="M390.212,117.146c-0.052-0.086-0.112-0.167-0.178-0.243c-2.346-2.631-4.962-4.59-7.778-5.824
				c-2.805-1.23-5.845-1.854-9.036-1.854c-5.625,0-10.501,2.047-14.489,6.082c-3.983,4.031-6.003,8.958-6.003,14.643
				c0,5.77,2.006,10.75,5.963,14.802c3.967,4.063,8.811,6.123,14.396,6.123c3.145,0,6.087-0.655,8.744-1.946
				c1.521-0.74,2.966-1.705,4.324-2.886v4.58c0,0.889,0.721,1.61,1.61,1.61h4.67c0.889,0,1.61-0.721,1.61-1.61v-22.808
				c0-0.066-0.004-0.133-0.012-0.198C393.607,124.183,392.322,120.66,390.212,117.146z M386.488,130.251
				c0,2.469-0.56,4.725-1.664,6.705c-1.109,1.989-2.653,3.522-4.72,4.684c-2.058,1.158-4.262,1.745-6.55,1.745
				c-2.266,0-4.342-0.567-6.346-1.733c-1.971-1.147-3.566-2.795-4.741-4.897c-1.181-2.114-1.78-4.347-1.78-6.637
				c0-2.33,0.592-4.555,1.758-6.611c1.166-2.053,2.748-3.678,4.703-4.828c1.952-1.148,4.13-1.729,6.474-1.729
				c3.632,0,6.616,1.239,9.127,3.79C385.265,123.296,386.488,126.407,386.488,130.251z"/>
		</g>
		<g>
			<path fill="#434343" d="M275.691,110.355c-3.189,0-6.23,0.623-9.036,1.854c-2.815,1.234-5.431,3.193-7.777,5.824
				c-0.067,0.075-0.128,0.157-0.179,0.243c-2.109,3.514-3.394,7.037-3.821,10.472c-0.008,0.066-0.012,0.132-0.012,0.198v34.66
				c0,0.889,0.721,1.61,1.61,1.61h4.67c0.889,0,1.61-0.721,1.61-1.61v-16.433c1.356,1.181,2.803,2.146,4.324,2.885
				c2.655,1.292,5.597,1.947,8.744,1.947c5.586,0,10.429-2.06,14.396-6.123c3.956-4.052,5.963-9.032,5.963-14.802
				c0-5.684-2.02-10.61-6.002-14.643C286.192,112.402,281.317,110.355,275.691,110.355z M288.225,131.247
				c0,2.289-0.599,4.522-1.78,6.637c-1.175,2.103-2.771,3.751-4.742,4.898c-2.003,1.166-4.079,1.733-6.345,1.733
				c-2.288,0-4.492-0.587-6.551-1.745c-2.068-1.163-3.611-2.695-4.72-4.685c-1.105-1.98-1.664-4.235-1.664-6.705
				c0-3.844,1.223-6.955,3.741-9.512c2.51-2.55,5.496-3.79,9.127-3.79c2.344,0,4.522,0.582,6.473,1.73
				c1.955,1.15,3.537,2.774,4.703,4.827C287.633,126.693,288.225,128.916,288.225,131.247z"/>
			<path fill="#434343" d="M333.92,116.437c-3.989-4.036-8.863-6.082-14.489-6.082c-3.19,0-6.231,0.623-9.037,1.854
				c-2.813,1.233-5.43,3.193-7.777,5.824c-0.067,0.075-0.128,0.157-0.179,0.243c-2.109,3.515-3.394,7.039-3.82,10.472
				c-0.008,0.066-0.012,0.132-0.012,0.198v34.66c0,0.889,0.721,1.61,1.61,1.61h4.671c0.889,0,1.61-0.721,1.61-1.61v-16.432
				c1.356,1.181,2.803,2.146,4.324,2.885c2.655,1.292,5.597,1.947,8.744,1.947c5.586,0,10.429-2.06,14.396-6.123
				c3.956-4.052,5.963-9.032,5.963-14.802C339.923,125.395,337.904,120.469,333.92,116.437z M331.966,131.247
				c0,2.288-0.6,4.521-1.781,6.637c-1.175,2.103-2.77,3.75-4.741,4.897c-1.975,1.15-4.11,1.733-6.346,1.733
				c-2.289,0-4.492-0.587-6.55-1.745c-2.069-1.163-3.612-2.695-4.72-4.685c-1.105-1.98-1.665-4.237-1.665-6.705
				c0-3.843,1.223-6.954,3.741-9.512c2.51-2.55,5.496-3.79,9.128-3.79c2.343,0,4.521,0.582,6.473,1.73
				c1.955,1.15,3.537,2.774,4.703,4.827C331.374,126.693,331.966,128.918,331.966,131.247z"/>
			<path fill="#434343" d="M248.61,117.146c-0.052-0.086-0.112-0.167-0.178-0.243c-2.346-2.631-4.962-4.59-7.778-5.824
				c-2.805-1.23-5.845-1.854-9.036-1.854c-5.625,0-10.501,2.047-14.489,6.083c-3.983,4.032-6.002,8.959-6.002,14.642
				c0,5.77,2.006,10.75,5.963,14.802c3.967,4.063,8.811,6.123,14.396,6.123c3.145,0,6.087-0.655,8.744-1.946
				c1.521-0.74,2.966-1.705,4.324-2.886v4.58c0,0.889,0.721,1.61,1.61,1.61h4.67c0.889,0,1.61-0.721,1.61-1.61v-22.808
				c0-0.066-0.005-0.133-0.012-0.198C252.004,124.183,250.719,120.66,248.61,117.146z M244.886,130.251
				c0,2.469-0.56,4.724-1.664,6.705c-1.108,1.989-2.652,3.521-4.72,4.684c-2.058,1.158-4.262,1.745-6.55,1.745
				c-2.266,0-4.342-0.567-6.346-1.733c-1.971-1.147-3.566-2.795-4.742-4.897c-1.181-2.114-1.78-4.347-1.78-6.637
				c0-2.33,0.591-4.555,1.758-6.611c1.166-2.053,2.749-3.678,4.703-4.828c1.952-1.148,4.13-1.729,6.474-1.729
				c3.631,0,6.616,1.24,9.127,3.79C243.662,123.296,244.886,126.407,244.886,130.251z"/>
		</g>
	</g>
	<g>
		<g>
			<path fill="#227CBF" d="M181.588,95.598c-0.019-1.732-1.161-3.319-2.912-3.821c-1.751-0.502-3.561,0.239-4.494,1.698
				c-0.16,0.25-0.291,0.522-0.395,0.812c-0.03,0.082-0.061,0.163-0.085,0.248s-0.041,0.17-0.059,0.256l-4.302,15.003l-0.061,0.213
				l-8.834,30.809c-0.298,1.038-1.391,1.644-2.429,1.347l-39.531-11.336c-1.038-0.298-1.644-1.391-1.347-2.429l9.77-34.072
				c0.033-0.091,0.068-0.183,0.095-0.278c0.613-2.138-0.623-4.367-2.76-4.98c-2.137-0.613-4.367,0.623-4.98,2.76
				c-0.014,0.047-0.021,0.094-0.033,0.141l-13.575,47.34c-1.421,4.955-0.217,7.128,4.738,8.548l45.456,13.034
				c4.955,1.421,7.128,0.217,8.548-4.738l17.033-59.402C181.543,96.367,181.591,95.979,181.588,95.598z"/>
			<g opacity="0.8">
				<path fill="#227CBF" d="M167.508,102.838c-0.003-0.002-0.005-0.004-0.007-0.005c-2.642-1.881-2.797-3.6-4.598-6.298
					c-1.843-2.766-4.535-3.938-7.794-2.668c-1.485,0.578-2.877,1.358-4.359,1.937c-0.673,0.267-1.374,0.475-2.087,0.622
					c-6.618,1.391-10.586-1.176-16.814-3.426c-0.046-0.017-0.092-0.032-0.138-0.049c-1.012-0.274-2.062,0.312-2.351,1.324
					l-0.483,1.684l-0.996,3.475l-0.055,0.191l-7.998,27.897c-0.267,0.929-0.111,1.21,0.819,1.476l36.507,10.468
					c0.929,0.267,1.21,0.111,1.477-0.819l8-27.898l0.055-0.191l0.996-3.475l0.556-1.94
					C168.485,104.273,168.171,103.374,167.508,102.838z"/>
			</g>
			<path fill="#697E79" d="M197.457,87.809c-2.574-0.738-4.829-0.529-6.704,0.623c-2.614,1.606-3.391,4.378-3.556,5.144l-0.996,3.44
				l-18.116,63.178c-1.34,4.671-6.229,7.381-10.9,6.042l-51.373-14.731c-4.671-1.34-7.381-6.229-6.042-10.9l20.811-72.578
				c0.353-1.231-0.361-2.52-1.592-2.872c-1.231-0.353-2.52,0.361-2.872,1.592l-20.811,72.579
				c-2.046,7.132,2.094,14.599,9.226,16.644l51.373,14.731c7.132,2.046,14.599-2.094,16.644-9.226l17.932-62.535l1.202-4.162
				l0.04-0.164c0.003-0.015,0.354-1.544,1.461-2.223c0.717-0.441,1.723-0.48,2.992-0.116c1.231,0.353,2.52-0.361,2.872-1.592
				C199.403,89.451,198.688,88.162,197.457,87.809z"/>
		</g>
		<g>
			<path fill="#FFD641" d="M153.372,75.387c0.888,1.421,0.452,3.312-0.969,4.2l-6.462,4.038c-1.421,0.888-3.312,0.452-4.2-0.969
				l-4.038-6.462c-0.888-1.421-0.452-3.312,0.969-4.2l6.462-4.038c1.421-0.888,3.312-0.452,4.2,0.969L153.372,75.387z"/>
			<path fill="#F27021" d="M178.696,68.922c-0.817,2.454-3.493,3.793-5.948,2.976l-11.154-3.715
				c-2.454-0.817-3.793-3.493-2.976-5.948l3.715-11.154c0.817-2.454,3.493-3.793,5.947-2.976l11.154,3.715
				c2.454,0.817,3.793,3.493,2.976,5.948L178.696,68.922z"/>
			<path fill="#41B555" d="M149.874,45.511c0.401,0.901,1.467,1.31,2.368,0.909l4.096-1.823c0.901-0.401,1.31-1.467,0.909-2.368
				l-1.823-4.096c-0.401-0.901-1.466-1.31-2.368-0.909l-4.096,1.823c-0.901,0.401-1.31,1.467-0.909,2.368L149.874,45.511z"/>
		</g>
		<g>
			<path fill="#FFFFFF" d="M140.234,147.253c-1.128,2.343-3.942,3.328-6.286,2.2l0,0c-2.343-1.128-3.328-3.942-2.2-6.286l0,0
				c1.128-2.343,3.942-3.328,6.286-2.2l0,0C140.377,142.096,141.362,144.91,140.234,147.253L140.234,147.253z"/>
			<path fill="#38A3DC" d="M139.421,146.912c-0.94,1.894-3.237,2.668-5.131,1.728l0,0c-1.894-0.94-2.668-3.237-1.728-5.131l0,0
				c0.94-1.894,3.237-2.668,5.131-1.728l0,0C139.587,142.72,140.361,145.018,139.421,146.912L139.421,146.912z"/>
		</g>
	</g>
</g>
</svg>
